<svg width="183" height="191" viewBox="0 0 183 191" fill="none" xmlns="http://www.w3.org/2000/svg">
<g filter="url(#filter0_d)">
<path d="M7 49.5824C7 42.8417 13.5405 38.0405 20.0206 39.8963C75.3024 55.7277 110.682 55.9845 163.816 40.1366C170.337 38.1915 177 42.9984 177 49.8036V159.324C177 163.536 174.356 167.311 170.373 168.68C111.65 188.858 75.07 186.716 14.0685 168.491C9.86607 167.236 7 163.351 7 158.965V49.5824Z" fill="#F39C9C"/>
<path d="M7 49.5824C7 42.8417 13.5405 38.0405 20.0206 39.8963C75.3024 55.7277 110.682 55.9845 163.816 40.1366C170.337 38.1915 177 42.9984 177 49.8036V159.324C177 163.536 174.356 167.311 170.373 168.68C111.65 188.858 75.07 186.716 14.0685 168.491C9.86607 167.236 7 163.351 7 158.965V49.5824Z" fill="url(#paint0_linear)"/>
</g>
<path d="M42.0409 136.845C42.1153 136.174 42.8191 135.768 43.437 136.04L68.5018 147.05C69.2522 147.38 69.3092 148.423 68.5993 148.832L40.5145 165.031C39.8046 165.441 38.9306 164.869 39.021 164.055L42.0409 136.845Z" fill="white"/>
<path d="M25 86.5369C25 83.2429 28.1404 80.8529 31.3319 81.6682C80.0773 94.1203 114.208 93.5644 149.273 82.2885C152.567 81.2293 156 83.6436 156 87.1037V135.826C156 137.755 154.909 139.519 153.133 140.271C112.034 157.663 34.0849 148.045 25.6218 139.825C25.1238 139.341 25 138.626 25 137.931V86.5369Z" fill="white"/>
<path d="M46.66 119.172L46.552 108.084C46.552 107.004 46.564 106.308 46.588 105.996C46.612 105.228 46.792 104.676 47.128 104.34C47.488 103.98 48.172 103.8 49.18 103.8H58.828C59.836 103.8 60.508 103.98 60.844 104.34C61.204 104.676 61.396 105.228 61.42 105.996C61.468 107.508 61.492 109.332 61.492 111.468C61.492 113.58 61.444 116.148 61.348 119.172C61.276 123.852 58.864 126.936 54.112 128.424C51.376 129.288 47.872 129.72 43.6 129.72C42.64 129.72 42.004 129.432 41.692 128.856C41.38 128.28 41.224 127.284 41.224 125.868C41.224 124.428 41.776 123.648 42.88 123.528C44.224 123.36 45.184 122.796 45.76 121.836C46.36 120.852 46.66 119.964 46.66 119.172ZM89.0025 105.492L100.774 125.4C101.254 126.192 101.494 126.864 101.494 127.416C101.494 127.944 101.278 128.34 100.846 128.604C100.414 128.868 99.9105 129 99.3345 129H87.7425C86.5665 129 85.8105 128.784 85.4745 128.352C85.3785 128.208 85.2465 127.956 85.0785 127.596L84.0345 125.364C83.7225 124.668 82.9905 124.272 81.8385 124.176H75.0345C74.5305 124.176 74.1465 124.224 73.8825 124.32C73.6185 124.416 73.4025 124.632 73.2345 124.968L71.8305 127.884C71.5905 128.316 71.3265 128.616 71.0385 128.784C70.7505 128.928 70.3305 129 69.7785 129H66.5385C65.6025 129 65.0985 128.664 65.0265 127.992C65.0025 127.896 64.9905 127.8 64.9905 127.704C64.9905 127.152 65.1705 126.624 65.5305 126.12L76.7985 106.248C77.8785 104.376 79.6305 103.44 82.0545 103.44H84.9345C86.8545 103.44 88.2105 104.124 89.0025 105.492ZM77.3385 114.708L75.6825 117.984C75.5865 118.2 75.5385 118.392 75.5385 118.56C75.5385 119.184 75.8385 119.496 76.4385 119.496H79.7145C80.2185 119.496 80.5665 119.376 80.7585 119.136C80.9505 118.872 81.0465 118.644 81.0465 118.452C81.0465 118.26 81.0105 118.068 80.9385 117.876L79.5705 114.78C79.2825 114.156 78.9105 113.844 78.4545 113.844C77.9985 113.844 77.6265 114.132 77.3385 114.708ZM117.514 105.672C118.402 106.776 119.422 108.204 120.574 109.956C121.726 111.684 122.53 112.836 122.986 113.412C123.442 113.988 123.802 114.276 124.066 114.276C124.354 114.276 124.606 114.12 124.822 113.808C125.038 113.496 125.83 112.296 127.198 110.208C128.566 108.12 129.694 106.536 130.582 105.456C131.47 104.352 132.178 103.788 132.706 103.764C133.234 103.74 133.918 103.728 134.758 103.728C135.598 103.728 136.582 103.752 137.71 103.8C138.838 103.848 139.582 104.148 139.942 104.7C140.326 105.228 140.554 105.984 140.626 106.968C140.77 109.488 140.842 112.836 140.842 117.012C140.842 121.164 140.734 124.44 140.518 126.84C140.47 127.416 140.254 127.932 139.87 128.388C139.486 128.844 138.958 129.072 138.286 129.072C136.822 129.096 135.19 129.108 133.39 129.108C131.614 129.108 130.198 129.072 129.142 129C128.758 128.976 128.41 128.832 128.098 128.568C127.81 128.28 127.654 127.908 127.63 127.452L127.414 121.512C127.39 120.936 127.258 120.612 127.018 120.54C126.802 120.468 126.598 120.624 126.406 121.008C125.134 123.264 123.55 125.784 121.654 128.568C121.198 129.264 120.598 129.612 119.854 129.612C119.11 129.612 118.498 129.264 118.018 128.568C117.178 127.368 115.75 124.824 113.734 120.936C113.614 120.696 113.47 120.552 113.302 120.504C113.158 120.456 113.026 120.516 112.906 120.684C112.786 120.852 112.726 121.128 112.726 121.512L112.546 127.452C112.522 127.908 112.318 128.28 111.934 128.568C111.55 128.832 111.106 128.976 110.602 129H107.038C106.39 128.976 105.862 128.748 105.454 128.316C105.07 127.884 104.842 127.392 104.77 126.84C104.578 124.704 104.482 121.392 104.482 116.904C104.482 112.392 104.542 109.08 104.662 106.968C104.734 105.96 104.962 105.18 105.346 104.628C105.73 104.076 106.414 103.8 107.398 103.8C112.438 103.8 115.162 103.836 115.57 103.908C115.978 103.98 116.626 104.568 117.514 105.672Z" fill="black"/>
<path d="M5.59722 55.377C1.07365 55.377 0.839684 51.8664 0.839684 48.3659C0.839684 40.1289 7.35 32.7114 7.35 24.3278C35.7212 24.3278 158.664 5.84781 175.5 21C177.473 22.776 176.888 26.2471 177.5 29C178.067 31.5507 186.478 58.5 178.5 58.5C174.985 58.5 171.352 50.5 168 50.5C163.056 50.5 162.711 58.8126 159.5 62C153.494 63.7162 150.221 56.2448 143.872 56.3786C138.654 57.5217 136.025 66.3666 132 66.3666C125.487 66.3666 123.621 60.6204 117.5 59C110.695 57.6263 106.633 68 101 68C94.4262 68 88.3631 58.2236 83.5 60.3849C79.7897 62.0339 75.0619 65.6281 71 66.3666C61.523 68.0897 62.3727 56.5212 54 58.3818C50.2279 59.22 46.8797 63.7433 42.5 63.5C39.7513 63.3473 37.3652 56.8469 35.6448 55.1266C31.7705 51.2523 27.7435 58.3818 23.125 58.3818C17.8232 58.3818 18.3875 49.3675 12.8587 49.3675C9.38038 49.3675 8.47732 55.377 5.59722 55.377Z" fill="#EF737A" stroke="#AD5151" stroke-linecap="round" stroke-linejoin="round"/>
<path d="M7 19C35.1432 42.6828 158.646 42.8742 177 19V36C148.693 61.9146 42.328 59.1012 7 36V19Z" fill="#EF737A"/>
<path d="M176.5 19C176.5 20.1503 175.98 21.3244 174.902 22.5151C173.822 23.708 172.206 24.8887 170.083 26.0337C165.838 28.3233 159.663 30.4207 151.991 32.1979C136.655 35.7506 115.445 38 92 38C68.5552 38 47.3446 35.7506 32.0088 32.1979C24.3369 30.4207 18.162 28.3233 13.9171 26.0337C11.7942 24.8887 10.1777 23.708 9.09754 22.5151C8.01951 21.3244 7.5 20.1503 7.5 19C7.5 17.8503 8.01894 16.6847 9.0957 15.5085C10.175 14.3295 11.7906 13.1682 13.9133 12.0464C18.1579 9.80326 24.3326 7.76793 32.005 6.05293C47.3416 2.62474 68.5533 0.5 92 0.5C115.447 0.5 136.658 2.62474 151.995 6.05293C159.667 7.76793 165.842 9.80326 170.087 12.0464C172.209 13.1682 173.825 14.3295 174.904 15.5085C175.981 16.6847 176.5 17.8503 176.5 19Z" fill="#EF737A" stroke="#AD5151"/>
<defs>
<filter id="filter0_d" x="3" y="39.4945" width="178" height="151.506" filterUnits="userSpaceOnUse" color-interpolation-filters="sRGB">
<feFlood flood-opacity="0" result="BackgroundImageFix"/>
<feColorMatrix in="SourceAlpha" type="matrix" values="0 0 0 0 0 0 0 0 0 0 0 0 0 0 0 0 0 0 127 0"/>
<feOffset dy="4"/>
<feGaussianBlur stdDeviation="2"/>
<feColorMatrix type="matrix" values="0 0 0 0 0 0 0 0 0 0 0 0 0 0 0 0 0 0 0.25 0"/>
<feBlend mode="normal" in2="BackgroundImageFix" result="effect1_dropShadow"/>
<feBlend mode="normal" in="SourceGraphic" in2="effect1_dropShadow" result="shape"/>
</filter>
<linearGradient id="paint0_linear" x1="92" y1="36" x2="92" y2="183" gradientUnits="userSpaceOnUse">
<stop stop-color="white"/>
<stop offset="1" stop-color="white" stop-opacity="0"/>
</linearGradient>
</defs>
</svg>
